<?xml version="1.0" standalone="no"?>
<!DOCTYPE svg PUBLIC "-//W3C//DTD SVG 20010904//EN"
 "http://www.w3.org/TR/2001/REC-SVG-20010904/DTD/svg10.dtd">
<svg version="1.0" xmlns="http://www.w3.org/2000/svg"
 width="455.000000pt" height="500.000000pt" viewBox="0 0 455.000000 500.000000"
 preserveAspectRatio="xMidYMid meet">
<metadata>
Created by potrace 1.15, written by Peter Selinger 2001-2017
</metadata>
<g transform="translate(0.000000,500.000000) scale(0.100000,-0.100000)"
fill="#000000" stroke="none">
<path d="M0 2500 l0 -2500 2275 0 2275 0 0 2500 0 2500 -2275 0 -2275 0 0
-2500z m2347 2296 c-8 -21 33 -44 84 -48 38 -3 33 -5 -32 -12 l-77 -8 -6 -37
c-4 -27 -2 -39 11 -48 22 -17 33 -16 33 1 0 23 13 26 60 14 39 -10 41 -12 25
-24 -26 -19 -10 -30 23 -18 21 8 31 7 40 -3 17 -18 52 -17 52 2 0 22 16 18 34
-9 8 -14 25 -28 37 -31 20 -7 20 -8 5 -17 -13 -8 -14 -11 -3 -22 7 -7 24 -17
37 -21 14 -4 43 -20 64 -36 22 -16 46 -29 53 -29 7 0 13 -4 13 -10 0 -5 -4
-10 -10 -10 -5 0 -10 -6 -10 -14 0 -20 35 -29 60 -16 13 7 20 7 20 0 0 -5 -5
-10 -11 -10 -6 0 33 -46 87 -103 82 -86 112 -126 176 -239 43 -76 75 -143 73
-150 -3 -7 4 -47 15 -88 40 -146 51 -227 39 -298 -5 -37 -15 -72 -21 -80 -13
-16 -45 -100 -59 -157 -16 -66 -30 -97 -75 -161 -40 -56 -193 -209 -201 -200
-2 2 19 39 46 83 71 115 138 252 171 351 32 98 47 182 33 182 -6 0 -13 52 -16
118 -8 168 -56 314 -131 401 -17 20 -36 45 -42 56 -6 11 -30 30 -55 42 -28 14
-37 22 -24 23 15 0 5 14 -43 60 -53 50 -68 60 -95 57 -26 -2 -33 2 -35 19 -4
25 -90 73 -101 56 -4 -7 -29 -3 -76 14 -179 64 -331 80 -488 50 -109 -21 -189
-66 -320 -179 -39 -35 -60 -61 -67 -86 -5 -20 -17 -46 -25 -58 -17 -24 -8 -32
13 -11 9 9 12 9 12 0 0 -6 -18 -21 -40 -32 -42 -21 -60 -45 -60 -79 0 -14 5
-19 15 -15 27 11 16 -5 -15 -21 -37 -19 -90 -98 -125 -184 -22 -54 -24 -65
-12 -75 13 -9 13 -20 1 -76 -12 -56 -12 -71 1 -110 8 -25 22 -79 31 -120 13
-59 24 -82 50 -108 19 -19 34 -42 34 -53 0 -10 9 -23 20 -29 10 -6 17 -16 14
-24 -3 -7 7 -21 22 -31 24 -15 31 -16 66 -4 34 11 44 11 66 -2 36 -20 40 -39
6 -39 -26 0 -27 -1 -9 -20 10 -11 26 -22 37 -26 13 -4 17 -11 13 -25 -4 -12
-1 -21 9 -25 9 -3 16 -11 16 -17 0 -6 10 -21 21 -33 l22 -23 28 42 c34 49 35
54 12 60 -14 3 -12 6 10 15 15 7 29 17 31 24 3 7 12 39 22 71 9 32 30 76 46
98 28 39 37 82 18 94 -12 7 19 54 37 55 8 0 10 11 6 33 -3 24 0 39 12 50 9 9
17 33 18 52 2 35 24 56 38 34 4 -6 12 -8 18 -4 7 4 19 1 27 -6 13 -11 14 -9 9
14 -6 22 -3 27 19 33 32 8 32 11 4 35 -15 11 -18 18 -9 19 11 0 11 3 1 15 -7
8 -10 22 -6 30 4 12 27 15 125 15 112 0 121 -1 135 -22 14 -20 14 -24 -4 -43
-16 -17 -17 -24 -7 -34 10 -11 8 -11 -11 -1 -19 9 -30 9 -53 0 -31 -13 -65
-46 -35 -34 11 4 16 1 16 -10 0 -9 -8 -16 -17 -16 -17 -1 -17 -1 -1 -11 10 -5
24 -9 30 -8 7 1 37 1 66 0 l54 -1 -41 -46 c-23 -26 -41 -53 -41 -60 0 -7 -7
-17 -16 -22 -11 -6 -14 -16 -9 -31 9 -29 105 -127 132 -135 31 -10 65 -55 58
-78 -4 -11 -1 -18 8 -18 12 0 42 -29 86 -85 10 -13 11 -16 1 -7 -17 14 -34 16
-25 2 3 -6 -4 -10 -16 -10 -32 0 -104 45 -129 81 -12 16 -27 28 -34 26 -6 -2
-39 21 -72 52 -87 79 -90 81 -125 81 -23 0 -30 -4 -25 -15 3 -10 -3 -17 -19
-21 -14 -3 -23 -10 -20 -14 3 -4 -5 -19 -16 -34 -11 -14 -19 -32 -16 -39 2 -6
-3 -18 -12 -25 -14 -11 -12 -16 22 -45 20 -17 37 -38 37 -46 0 -11 -5 -10 -20
4 -17 15 -20 16 -25 3 -4 -9 -15 -13 -29 -11 -13 3 -30 -2 -39 -11 -8 -9 -23
-16 -31 -16 -9 0 -15 -6 -14 -12 2 -7 -6 -13 -17 -13 -25 0 -38 -17 -22 -28 8
-6 4 -7 -11 -4 -19 4 -26 -2 -47 -43 -21 -42 -23 -50 -9 -61 11 -9 18 -9 26
-1 8 8 18 6 36 -8 14 -11 33 -20 44 -20 15 0 18 -5 13 -21 -8 -23 -4 -22 47
13 14 10 33 18 41 18 8 0 20 6 26 14 7 8 35 14 73 15 34 1 68 7 76 13 10 9 18
9 32 0 11 -6 42 -11 69 -11 114 3 256 -112 336 -274 25 -49 45 -95 45 -103 0
-23 19 -16 25 9 4 16 26 31 76 54 l69 31 -36 64 c-20 35 -50 85 -66 112 -16
27 -27 50 -25 53 3 2 49 -40 103 -94 54 -54 101 -98 105 -98 4 0 11 -3 15 -7
13 -14 37 -8 75 18 21 14 45 27 55 28 19 3 33 26 15 26 -6 0 -11 8 -11 18 0
10 -9 28 -20 40 -11 12 -20 30 -20 41 0 11 -5 21 -10 23 -12 4 -20 57 -24 155
-2 45 1 58 8 47 8 -10 11 9 12 73 3 168 79 306 212 385 74 44 110 56 185 63
81 8 258 -26 287 -55 17 -17 88 -67 103 -73 9 -3 17 -13 17 -21 0 -7 13 -28
28 -44 66 -70 78 -107 92 -275 9 -113 9 -120 -13 -165 -13 -26 -22 -54 -21
-62 7 -33 -51 -125 -98 -156 -26 -18 -44 -34 -41 -38 3 -3 -3 -8 -13 -12 -10
-3 -30 -10 -43 -15 l-24 -10 34 -29 c29 -25 31 -29 14 -30 -18 -1 -17 -2 5
-15 14 -8 35 -14 46 -15 12 0 27 -7 34 -15 10 -12 15 -13 21 -4 7 12 62 -41
122 -117 15 -20 28 -24 68 -24 45 0 49 -2 49 -23 0 -13 10 -32 21 -43 22 -19
22 -19 14 6 -7 23 -6 24 9 11 83 -69 255 -360 205 -349 -20 5 -30 -51 -14 -83
8 -15 15 -34 15 -41 -1 -7 -17 17 -36 55 -32 63 -36 67 -62 61 -45 -10 -52
-13 -52 -24 0 -6 5 -8 10 -5 6 3 10 1 10 -6 0 -6 6 -17 14 -23 18 -14 31 -146
14 -146 -6 0 1 -12 15 -26 24 -24 25 -28 12 -47 -8 -12 -15 -33 -15 -47 0 -14
-9 -32 -20 -40 -23 -16 -26 -49 -7 -69 9 -10 9 -15 0 -18 -7 -3 -9 -23 -6 -64
5 -55 4 -61 -16 -66 -21 -5 -30 -33 -11 -33 18 0 10 -32 -9 -37 -11 -3 -21
-14 -24 -25 -4 -14 -2 -18 8 -14 11 4 14 -3 11 -33 -3 -34 -21 -81 -30 -81 -2
0 -2 15 -1 33 1 17 -2 35 -8 39 -8 5 -8 20 2 55 24 88 24 89 13 78 -6 -5 -24
-47 -41 -93 -35 -96 -84 -178 -182 -302 -38 -48 -69 -90 -69 -94 0 -18 21 -2
35 27 24 50 95 129 112 123 10 -4 13 0 11 14 -4 23 42 102 57 97 16 -6 11 -41
-13 -80 -13 -20 -21 -41 -17 -47 8 -14 -43 -86 -102 -141 -57 -55 -199 -169
-208 -169 -14 0 19 32 63 62 52 36 51 45 -3 18 -22 -11 -47 -20 -57 -20 -10 0
-22 -8 -25 -17 -8 -22 -23 -33 -43 -33 -10 0 -7 7 10 20 47 37 -23 14 -83 -27
-20 -14 -40 -23 -44 -20 -3 4 -11 2 -18 -3 -6 -5 -33 -11 -58 -11 -26 -1 -47
-6 -47 -11 0 -5 -4 -6 -10 -3 -5 3 -34 -1 -64 -9 -41 -10 -67 -11 -98 -4 -23
5 -54 8 -68 7 -14 0 -27 0 -30 1 -3 1 -42 3 -88 5 -99 4 -144 13 -136 26 3 5
0 9 -7 9 -10 0 -10 3 -1 12 10 10 19 8 43 -6 17 -10 33 -16 36 -13 3 3 -35 26
-83 52 -57 29 -78 44 -59 41 154 -25 210 -30 345 -30 158 -1 280 16 280 38 0
6 31 25 68 41 147 66 301 195 347 291 10 21 27 51 38 66 15 20 18 36 14 65 -4
21 -4 32 -1 26 11 -26 22 -12 48 62 26 73 26 76 9 102 -10 14 -13 28 -8 30 25
9 33 21 35 53 3 54 1 72 -8 66 -5 -3 -14 55 -20 128 -14 151 -29 211 -79 311
-70 139 -151 221 -279 282 -32 15 -65 34 -72 41 -15 14 -22 15 -109 16 -49 1
-60 -1 -51 -11 18 -22 -2 -14 -34 12 -30 25 -108 36 -108 15 0 -5 5 -10 11
-10 5 0 7 -5 4 -10 -4 -6 -18 -1 -35 14 -20 16 -52 28 -100 36 -39 7 -73 10
-75 8 -8 -7 101 -157 111 -153 7 2 51 -51 100 -118 48 -67 132 -182 187 -255
l99 -134 -28 -51 c-16 -29 -51 -94 -79 -144 -54 -100 -65 -108 -148 -104 -21
0 -50 -5 -65 -13 -15 -7 -38 -17 -52 -21 -24 -7 -24 -6 -5 8 17 13 9 15 -92
13 -90 -2 -116 -5 -131 -19 -23 -21 -46 -22 -62 -2 -20 24 -159 17 -143 -8 6
-11 -302 -3 -344 9 -18 5 -23 2 -23 -13 0 -27 10 -35 27 -22 17 15 17 5 -3
-33 -26 -50 -20 -93 20 -153 20 -30 36 -57 36 -61 0 -8 -62 38 -88 66 -25 27
-86 148 -97 193 -9 34 -8 33 -75 41 l-56 7 -17 -73 c-22 -93 -91 -233 -162
-326 -52 -67 -54 -72 -26 -57 64 33 194 55 295 51 63 -2 96 0 96 7 0 6 13 -2
29 -17 16 -15 37 -26 47 -24 13 2 33 -16 68 -62 27 -36 60 -75 73 -87 13 -12
23 -27 23 -33 0 -7 8 -24 19 -38 10 -15 26 -51 35 -79 10 -29 21 -55 26 -58 5
-3 7 -23 4 -45 -4 -35 -2 -41 20 -51 26 -12 45 -65 20 -55 -10 4 -14 -2 -14
-19 0 -14 -4 -25 -10 -25 -5 0 -10 -7 -10 -15 0 -8 -4 -15 -8 -15 -4 0 -14
-16 -21 -36 -7 -19 -19 -38 -27 -41 -8 -3 -14 -12 -14 -20 0 -17 -18 -36 -43
-46 -11 -4 -21 -16 -24 -27 -3 -12 -14 -20 -26 -20 -12 0 -34 -12 -50 -27 -35
-33 -28 -16 26 65 63 92 81 153 81 272 1 106 -12 155 -47 177 -18 12 -67 80
-61 86 3 2 -7 8 -21 11 -14 4 -50 18 -80 31 -29 14 -71 25 -93 25 -32 0 -41 4
-45 21 -5 17 -11 20 -29 15 -13 -4 -39 -7 -59 -6 -30 0 -38 -3 -42 -22 -4 -12
-9 -19 -12 -16 -4 3 -30 -16 -58 -42 -81 -77 -121 -91 -96 -36 11 23 10 29 -6
44 -10 9 -15 12 -12 6 4 -6 -2 -19 -12 -28 -15 -13 -20 -14 -24 -4 -4 8 -6 7
-6 -4 -1 -10 -6 -18 -12 -18 -6 0 -8 -7 -5 -16 4 -11 -3 -19 -23 -27 -20 -7
-33 -22 -41 -48 -7 -21 -16 -38 -19 -37 -18 2 -22 -4 -11 -17 10 -12 10 -15 0
-15 -9 0 -11 -24 -8 -98 4 -85 8 -105 37 -160 20 -38 50 -76 79 -100 25 -20
55 -46 67 -57 11 -11 32 -27 45 -36 28 -17 145 -49 184 -49 14 0 28 -5 32 -11
4 -8 -21 -10 -87 -8 -75 3 -103 9 -139 28 -25 13 -61 32 -82 42 -116 60 -227
296 -200 426 6 28 7 52 2 57 -5 5 -1 19 10 34 26 32 25 41 -2 35 -22 -4 -22
-4 1 10 14 8 26 22 27 32 1 10 7 22 13 28 27 27 5 21 -75 -19 -47 -23 -120
-50 -162 -59 -132 -29 -256 -65 -270 -79 -9 -9 -27 -11 -60 -6 -26 4 -81 11
-124 15 -61 5 -77 10 -81 24 -4 15 -20 19 -97 24 -78 5 -104 11 -167 41 -41
20 -81 36 -89 36 -7 0 -11 6 -9 12 3 7 -12 23 -32 34 -71 41 -218 156 -226
178 -5 11 -18 32 -30 45 l-22 24 23 -6 c26 -6 26 -8 7 36 -19 45 -19 48 1 40
13 -5 14 -3 6 13 -6 10 -22 30 -36 43 -14 14 -26 30 -26 37 0 8 -6 11 -13 8
-10 -4 -17 17 -26 83 -17 115 -15 110 -54 127 -41 16 -54 33 -38 49 13 13 15
54 2 62 -5 3 -11 -3 -13 -12 -9 -40 -38 131 -38 222 0 96 17 196 30 176 11
-19 47 30 58 79 10 42 11 40 9 -34 l-2 -80 39 -9 c29 -7 40 -6 47 4 13 20 11
29 -6 29 -19 0 -19 18 1 66 15 37 17 38 31 19 14 -19 15 -18 11 18 -3 25 0 37
8 37 22 0 28 40 8 54 -17 13 -16 14 4 20 12 4 30 18 41 32 15 19 20 21 25 9 5
-13 8 -13 26 2 11 10 20 22 20 28 0 6 18 29 40 50 22 21 40 46 40 55 1 12 3
11 15 -4 22 -29 48 -4 40 38 -4 21 -3 27 3 17 12 -16 16 -14 104 57 37 29 98
69 135 88 l68 34 -90 -5 c-98 -6 -200 12 -266 46 -31 16 -38 17 -54 5 -14 -10
-25 -11 -42 -3 -18 8 -20 13 -11 19 10 6 9 11 -4 19 -10 5 -18 16 -18 23 0 7
-11 30 -25 50 -14 20 -25 43 -25 51 0 7 -6 20 -14 28 -8 7 -17 29 -20 48 -3
19 -12 59 -21 89 -37 138 -37 138 -26 171 6 18 11 43 11 55 0 13 5 24 10 24 6
0 10 7 10 16 0 17 41 97 52 102 4 2 17 19 29 38 22 37 102 94 203 147 59 31
65 32 186 32 100 0 136 -4 180 -20 30 -11 57 -22 60 -25 33 -33 120 -87 120
-74 0 13 -50 102 -64 113 -24 20 -24 266 0 275 14 5 15 15 9 59 -5 28 -7 75
-6 102 2 57 50 227 62 220 4 -3 11 5 14 17 13 45 139 268 152 268 7 0 22 14
35 30 25 35 38 39 31 9 l-6 -20 34 20 c37 23 54 27 44 11 -12 -19 15 -10 33
12 9 11 26 30 37 42 11 11 19 25 18 31 -2 9 156 65 184 65 7 0 15 12 19 28 11
48 32 74 53 63 19 -11 61 -4 61 9 0 5 -8 10 -17 12 -21 4 137 56 204 68 26 4
83 8 127 9 64 1 77 -2 73 -13z"/>
<path d="M836 3441 c-17 -3 -30 -13 -32 -23 -3 -22 -4 -22 46 -2 31 13 46 14
71 5 17 -6 34 -9 38 -7 3 2 15 -2 26 -11 18 -13 16 -14 -30 -7 -79 13 -110 11
-110 -6 0 -8 6 -20 14 -26 12 -9 10 -14 -9 -27 -14 -10 -28 -13 -34 -8 -6 5
-38 5 -71 0 -37 -5 -61 -4 -63 2 -2 5 -8 7 -12 4 -5 -3 -7 -11 -5 -18 3 -7 -7
-20 -21 -31 -22 -15 -28 -16 -35 -5 -7 11 -9 11 -9 -2 0 -9 -12 -21 -26 -28
-16 -7 -24 -17 -20 -26 3 -9 -3 -19 -16 -26 -14 -7 -17 -14 -9 -18 14 -9 9
-54 -13 -103 -10 -24 -13 -48 -9 -69 5 -28 4 -31 -11 -26 -12 5 -16 3 -13 -5
2 -7 11 -12 20 -12 9 1 14 -2 11 -8 -3 -5 -1 -14 4 -21 5 -7 13 -32 17 -57 13
-77 36 -119 72 -131 18 -6 33 -14 33 -19 0 -5 14 -18 31 -31 23 -16 33 -19 42
-10 9 9 8 14 -3 21 -8 5 -10 10 -4 10 5 0 19 -7 30 -15 10 -8 29 -15 42 -15
12 0 22 -4 22 -10 0 -5 -10 -10 -21 -10 -18 0 -19 -2 -9 -15 8 -10 17 -12 24
-6 23 19 82 23 99 7 20 -20 46 -20 54 0 3 8 11 13 19 10 7 -3 24 4 37 15 14
10 30 19 35 19 6 0 26 19 46 43 19 24 44 43 57 44 26 2 30 5 32 32 1 11 5 21
9 21 5 0 13 11 20 25 8 18 8 28 -1 39 -9 11 -9 16 0 21 7 5 7 10 2 14 -14 8
-25 131 -13 131 6 0 10 8 10 18 1 16 1 16 11 0 11 -19 49 -25 49 -8 0 6 -4 10
-10 10 -5 0 -9 16 -8 36 1 20 -4 39 -12 44 -8 5 -10 17 -6 34 4 15 2 26 -4 26
-5 0 -10 8 -10 19 0 10 -6 24 -14 31 -8 6 -12 18 -9 26 3 8 -1 14 -11 14 -9 0
-16 4 -16 9 0 5 -16 15 -35 22 -20 7 -34 18 -31 25 3 7 -5 9 -20 6 -17 -3 -24
0 -24 12 0 16 -11 20 -38 17 -8 -1 -19 4 -25 12 -13 16 -107 28 -151 18z"/>
<path d="M3423 3375 c-60 -27 -100 -76 -148 -182 -25 -56 -49 -125 -52 -152
-5 -44 7 -141 24 -190 5 -12 3 -13 -6 -5 -31 28 -57 234 -39 309 l7 30 -14
-30 c-39 -86 -24 -221 38 -323 70 -116 124 -160 171 -142 21 8 26 6 26 -6 0
-11 8 -14 33 -9 17 3 64 2 104 -3 62 -7 75 -6 97 11 17 12 26 28 26 46 0 50
82 125 107 100 16 -16 107 79 93 96 -6 7 -10 17 -8 21 1 5 -1 37 -6 72 -5 43
-4 68 4 77 7 8 9 20 5 27 -3 7 2 3 11 -9 16 -23 54 -32 54 -13 0 6 -4 10 -10
10 -5 0 -9 17 -8 37 1 20 -4 39 -10 41 -7 2 -12 15 -12 29 0 45 -47 93 -129
131 -66 31 -87 36 -156 37 -48 1 -83 -2 -87 -9 -5 -8 -13 -7 -28 2 -25 15 -46
14 -87 -3z"/>
<path d="M1366 3010 c-3 -41 -15 -103 -26 -137 -23 -75 -75 -179 -92 -187 -13
-5 71 1 130 10 23 4 32 2 27 -5 -3 -6 -27 -11 -53 -11 -58 0 -95 -19 -42 -21
28 -1 23 -4 -25 -13 -33 -6 -71 -19 -84 -28 -24 -17 -21 -17 78 -14 57 2 108
9 113 14 6 6 40 8 85 5 70 -6 74 -5 80 15 3 12 9 20 13 17 12 -7 96 94 92 110
-1 8 5 15 13 17 10 2 -7 18 -47 45 -61 40 -207 182 -239 233 -15 23 -16 22
-23 -50z"/>
<path d="M2395 2727 c-6 -8 -39 -26 -74 -42 -56 -24 -77 -28 -168 -28 -86 0
-106 -3 -119 -18 -9 -10 -21 -16 -25 -13 -5 3 -6 -1 -3 -9 3 -9 -3 -17 -17
-20 -16 -4 -19 -3 -10 6 17 17 13 31 -4 17 -8 -7 -15 -18 -15 -26 0 -7 -9 -29
-21 -48 -11 -19 -18 -39 -15 -45 3 -5 -1 -14 -9 -21 -13 -11 -3 -25 68 -100
45 -48 99 -116 121 -151 43 -71 48 -73 -100 43 -55 43 -102 78 -106 78 -18 0
-6 -18 15 -24 21 -7 21 -7 2 -15 -13 -5 -22 -20 -25 -42 l-6 -34 -17 49 c-9
27 -17 62 -17 77 0 23 -10 32 -71 64 -39 20 -72 35 -73 33 -18 -20 -24 -46
-14 -56 9 -9 7 -12 -8 -12 -14 0 -31 -20 -58 -65 -21 -36 -76 -122 -122 -192
-84 -127 -129 -222 -121 -255 3 -10 -9 -35 -28 -59 -50 -64 -37 -71 111 -57
139 12 145 13 204 10 39 -2 43 -4 28 -16 -16 -12 -14 -14 23 -26 26 -9 35 -16
27 -21 -25 -16 3 -21 46 -9 24 7 49 9 55 5 6 -3 11 1 11 10 0 13 5 15 18 10 9
-4 52 -15 95 -24 69 -13 80 -13 87 0 16 28 70 79 85 79 8 0 25 -5 38 -11 16
-7 53 -8 113 -2 82 7 89 10 92 31 2 12 -2 22 -9 22 -7 0 -9 3 -5 7 3 4 -13 12
-36 18 -24 6 -54 15 -67 19 -18 6 -22 5 -15 -5 4 -8 -8 -2 -27 12 -21 15 -45
24 -62 23 -20 -2 -32 4 -43 22 -9 13 -20 24 -25 24 -4 0 -19 10 -32 23 -61 56
-76 67 -90 67 -22 0 -30 17 -12 24 8 3 15 2 15 -3 0 -5 15 -14 33 -21 17 -7
53 -21 79 -31 54 -22 67 -24 50 -7 -17 17 -15 38 3 38 9 0 18 -12 21 -30 6
-26 12 -30 51 -36 59 -9 164 1 173 16 4 6 10 11 14 11 26 -4 36 5 54 50 28 65
99 172 152 227 37 38 40 46 34 77 -4 22 -2 35 4 35 19 0 23 36 7 66 -8 16 -15
39 -15 52 0 15 -6 22 -19 22 -11 0 -21 3 -23 8 -1 4 -27 25 -55 47 -56 42 -67
69 -31 78 l22 6 -22 19 c-12 11 -22 23 -22 28 0 6 -12 11 -27 12 -15 1 -32 7
-37 12 -13 13 -19 13 -31 -3z"/>
<path d="M1795 2624 l-47 -86 28 -23 c16 -13 41 -25 56 -27 25 -4 27 0 43 56
10 33 28 76 41 95 27 39 25 46 -13 54 -16 3 -35 8 -44 12 -13 5 -27 -13 -64
-81z"/>
<path d="M1290 2503 c-100 -12 -172 -36 -272 -93 -10 -6 -26 -14 -35 -18 -10
-5 -29 -26 -41 -48 -13 -21 -21 -31 -18 -21 8 26 -8 21 -55 -18 -23 -20 -50
-40 -60 -46 -18 -9 -25 -39 -13 -52 4 -3 15 -2 25 4 29 15 25 -26 -3 -46 -21
-14 -23 -14 -26 0 -2 8 -13 15 -24 15 -22 0 -38 -16 -64 -64 -14 -24 -14 -28
-1 -23 8 3 -2 -25 -27 -72 -84 -158 -107 -238 -113 -396 -5 -127 -5 -132 26
-210 36 -94 68 -148 81 -140 12 7 33 -32 25 -46 -12 -18 25 -60 70 -79 24 -10
48 -27 55 -37 10 -16 11 -16 7 5 -3 12 -1 22 4 22 10 0 14 -8 23 -52 4 -15 18
-35 32 -44 23 -16 26 -16 39 2 13 18 14 17 25 -11 16 -44 65 -91 150 -146 57
-37 76 -45 78 -34 4 20 11 19 73 -6 49 -19 60 -19 168 -9 140 13 149 16 183
47 18 17 32 23 46 18 15 -4 24 0 32 16 8 14 15 18 19 10 5 -7 15 -3 31 13 19
21 22 32 16 67 -6 35 -3 46 15 65 27 29 43 31 36 4 -7 -28 14 -25 43 5 18 19
26 22 37 14 9 -9 14 -7 19 5 3 9 14 16 24 16 10 0 35 20 57 43 22 24 57 54 77
66 29 18 34 26 25 37 -9 11 -5 20 15 45 14 17 26 35 26 40 0 6 8 5 20 -1 17
-9 20 -8 20 10 0 11 5 29 12 40 7 10 9 22 5 26 -4 4 -136 11 -292 15 -234 5
-293 4 -327 -8 -23 -8 -54 -11 -69 -8 -18 4 -29 2 -29 -4 0 -6 9 -11 20 -11
11 0 20 -4 20 -10 0 -16 -22 -11 -65 15 -55 34 -152 33 -124 -1 18 -21 -8 -18
-41 6 -15 10 -59 29 -97 41 l-70 22 -62 112 -62 113 61 58 c34 32 57 60 51 62
-22 7 -10 30 44 81 30 29 63 72 74 97 11 24 41 71 66 104 50 64 90 144 80 160
-3 5 6 17 20 26 14 9 25 26 25 39 0 14 7 25 19 28 28 7 36 55 13 86 -10 14
-21 34 -25 44 -6 17 -32 20 -117 10z"/>
<path d="M3087 2371 c4 -16 -4 -20 -63 -30 -53 -10 -76 -19 -104 -45 -20 -18
-51 -41 -68 -52 -18 -10 -32 -22 -32 -27 0 -5 -18 -30 -40 -56 -22 -26 -40
-50 -40 -54 0 -3 -12 -19 -26 -34 -14 -15 -32 -35 -40 -44 -21 -24 -17 -63 11
-89 28 -26 30 -36 14 -77 -11 -28 -11 -28 -22 -5 -15 33 -26 27 -33 -18 -5
-31 -11 -40 -26 -40 -15 0 -19 -5 -15 -19 3 -13 -1 -21 -14 -24 -11 -3 -19
-13 -19 -22 0 -13 8 -15 48 -11 l47 5 -49 -12 c-85 -22 -84 -87 2 -87 30 0 33
-2 22 -15 -20 -24 -4 -30 27 -10 18 12 28 14 31 7 2 -7 12 -12 22 -12 20 0 43
23 33 33 -13 13 6 7 40 -13 21 -13 42 -18 53 -14 18 7 18 6 -1 -16 -17 -20
-18 -23 -2 -17 9 4 17 3 17 -1 0 -4 43 -7 96 -7 86 0 95 -2 90 -17 -6 -27 41
-23 65 5 14 16 17 17 13 5 -6 -17 6 -18 159 -18 90 0 184 3 209 6 43 6 47 9
79 69 l33 62 -51 64 c-28 35 -60 73 -72 83 -12 11 -21 25 -21 33 0 22 -51 90
-140 186 -88 96 -150 185 -150 215 0 11 -8 30 -19 43 -10 13 -26 39 -35 57
-18 35 -37 44 -29 13z"/>
</g>
</svg>
