<?xml version="1.0" standalone="no"?>
<!DOCTYPE svg PUBLIC "-//W3C//DTD SVG 20010904//EN"
 "http://www.w3.org/TR/2001/REC-SVG-20010904/DTD/svg10.dtd">
<svg version="1.0" xmlns="http://www.w3.org/2000/svg"
 width="1591.000000pt" height="1746.000000pt" viewBox="0 0 1591.000000 1746.000000"
 preserveAspectRatio="xMidYMid meet">
<metadata>
Created by potrace 1.15, written by Peter Selinger 2001-2017
</metadata>
<g transform="translate(0.000000,1746.000000) scale(0.100000,-0.100000)"
fill="#000000" stroke="none">
<path d="M7695 16789 c-368 -30 -657 -108 -887 -242 l-73 -42 35 -3 c66 -7 78
-34 24 -52 -50 -17 -132 -8 -184 19 -23 12 -48 20 -55 17 -23 -8 -81 -140
-104 -233 l-23 -91 -47 -6 c-56 -7 -178 -48 -306 -101 -95 -40 -259 -85 -306
-85 -26 0 -29 -3 -29 -32 -1 -43 -31 -108 -74 -161 -31 -38 -156 -148 -176
-155 -4 -2 -6 15 -3 37 7 49 -8 54 -47 16 -15 -14 -75 -49 -133 -79 l-107 -53
0 52 c0 81 -16 86 -88 26 -233 -194 -477 -592 -716 -1166 l-17 -39 -25 27
c-33 36 -42 34 -49 -10 -4 -21 -38 -166 -75 -323 -38 -157 -74 -312 -79 -345
-31 -186 -22 -344 29 -495 l28 -85 -41 -43 c-23 -24 -52 -45 -64 -49 l-23 -5
0 -433 0 -432 51 -64 c112 -140 173 -247 185 -326 3 -22 2 -48 -3 -57 -21 -37
-245 137 -310 240 -27 42 -33 46 -133 78 -544 176 -1095 146 -1580 -85 -293
-140 -509 -326 -683 -589 -211 -319 -277 -510 -277 -799 0 -346 85 -610 402
-1261 80 -162 155 -320 167 -350 l23 -55 151 0 c172 -1 251 -13 580 -96 283
-71 401 -89 575 -89 l147 0 -83 -34 c-141 -57 -224 -113 -522 -346 -105 -83
-281 -200 -299 -200 -4 0 -5 16 -3 35 4 30 0 36 -23 47 -38 17 -48 -2 -39 -77
4 -33 8 -86 8 -119 1 -52 -2 -61 -26 -79 -40 -30 -72 -17 -93 37 -16 42 -41
61 -62 47 -6 -3 -18 -29 -27 -56 -32 -100 -87 -176 -235 -328 -159 -163 -163
-164 -178 -73 -11 65 -29 70 -37 9 -12 -93 -75 -155 -197 -195 -56 -18 -69
-26 -69 -42 0 -31 12 -43 53 -61 76 -31 68 -99 -20 -171 l-46 -37 6 -68 6 -67
-27 14 c-15 8 -44 14 -64 14 l-38 0 0 -54 c0 -42 -7 -67 -32 -112 -17 -33 -39
-74 -49 -92 -10 -19 -15 -40 -13 -47 3 -7 32 -27 65 -45 32 -17 59 -33 59 -36
0 -2 -9 -13 -20 -24 -11 -11 -20 -28 -20 -38 0 -18 -29 -52 -44 -52 -4 0 -19
9 -34 19 -15 11 -56 27 -92 36 -35 9 -77 23 -92 31 -27 14 -28 18 -28 88 0 40
11 131 24 202 35 189 39 237 25 301 -10 53 -12 56 -21 33 -5 -14 -25 -97 -44
-185 -43 -200 -59 -248 -96 -291 -34 -39 -70 -44 -119 -18 -17 8 -32 14 -34
12 -7 -8 -47 -184 -62 -278 -21 -133 -24 -535 -5 -690 19 -151 47 -308 77
-437 26 -112 27 -113 56 -113 28 0 29 2 29 44 0 49 24 82 41 55 19 -31 9 -95
-26 -162 -19 -36 -35 -75 -35 -86 0 -28 51 -67 154 -116 128 -61 134 -69 152
-206 20 -154 39 -257 81 -433 28 -119 37 -145 45 -130 11 20 37 44 49 44 4 0
10 -17 14 -37 11 -60 29 -86 115 -163 85 -77 113 -117 108 -153 -3 -21 -6 -19
-40 16 -24 24 -46 37 -62 37 -32 0 -33 -14 -2 -51 13 -15 38 -71 56 -124 17
-52 36 -97 41 -100 5 -4 9 -10 9 -16 0 -14 -52 -11 -84 6 -16 9 -31 13 -33 11
-6 -6 43 -101 95 -181 158 -247 396 -445 802 -669 85 -47 161 -89 168 -93 11
-7 10 -15 -3 -46 -9 -22 -15 -43 -13 -49 2 -5 42 -24 88 -42 47 -18 155 -62
240 -98 340 -143 540 -187 802 -175 145 7 148 6 156 -73 l4 -48 47 -6 c25 -3
154 -15 286 -27 132 -11 311 -31 398 -44 l157 -22 133 66 c176 89 344 143 827
266 486 124 686 191 791 265 16 12 33 19 37 16 10 -11 -28 -72 -82 -134 -54
-62 -109 -143 -101 -150 2 -3 18 1 34 8 17 7 38 9 47 6 15 -6 14 -10 -9 -34
-50 -52 -59 -92 -67 -297 -5 -167 -9 -196 -29 -242 -13 -29 -29 -57 -36 -63
-11 -9 -6 -35 30 -138 208 -609 459 -985 798 -1196 195 -122 402 -177 667
-177 122 0 355 23 369 36 4 5 -20 10 -154 30 -366 55 -667 188 -882 389 -43
40 -88 78 -100 85 -13 6 -23 18 -23 26 0 7 -20 21 -45 31 -48 18 -85 55 -85
84 0 9 -18 29 -39 44 -49 34 -71 80 -49 103 24 24 57 7 79 -40 10 -23 19 -50
19 -59 0 -13 8 -18 28 -18 15 0 47 -9 71 -20 51 -24 65 -25 80 -7 8 11 0 21
-38 45 -63 41 -110 112 -161 242 -52 130 -94 211 -127 242 l-26 23 6 -60 c3
-33 19 -91 36 -130 35 -81 39 -124 12 -156 l-20 -24 -24 55 c-80 181 -140 434
-141 600 -1 132 18 190 73 231 40 30 39 53 -4 92 -25 21 -35 39 -35 59 0 28 0
28 30 13 16 -8 38 -15 50 -15 17 0 20 6 20 50 0 58 18 106 49 134 11 11 21 28
21 38 0 26 44 68 72 68 27 0 87 16 107 29 12 8 12 14 1 40 -12 29 -10 37 20
96 33 64 43 75 55 55 13 -21 48 -8 94 35 56 53 105 68 115 37 10 -29 -2 -70
-34 -122 -30 -48 -46 -103 -35 -120 9 -15 172 72 258 137 40 31 147 130 239
221 l167 166 86 4 c180 9 359 -32 760 -176 138 -49 280 -99 318 -112 56 -18
67 -25 67 -44 0 -54 60 -145 148 -224 144 -128 170 -160 192 -230 47 -151 55
-217 55 -447 -1 -205 -3 -228 -29 -339 -40 -171 -87 -301 -170 -471 -71 -143
-191 -343 -257 -427 -17 -21 -29 -41 -26 -44 11 -11 75 31 137 91 86 82 119
98 203 99 l68 1 -6 30 c-15 74 -14 77 58 126 145 98 215 189 367 479 50 96
118 214 149 261 50 76 56 89 44 105 -7 10 -13 28 -13 39 0 28 -23 48 -83 70
-73 27 -87 52 -87 151 0 172 -46 311 -221 665 -132 267 -138 276 -182 302 -57
34 -116 101 -175 199 -26 43 -53 78 -60 78 -7 0 -16 8 -19 17 -4 10 -18 27
-32 37 -13 11 -41 57 -62 103 -44 95 -64 105 -98 48 -11 -19 -26 -35 -33 -35
-7 0 -50 34 -95 74 -45 41 -102 86 -127 101 -39 23 -49 25 -83 16 -65 -17
-189 -30 -433 -46 -447 -29 -669 -64 -824 -130 -44 -19 -82 -33 -84 -31 -2 2
28 42 66 89 185 227 374 544 515 867 31 69 63 143 73 165 15 35 18 37 21 17 3
-13 10 -21 16 -19 19 6 21 40 3 53 -15 11 -15 21 4 138 21 130 38 186 67 218
13 14 32 18 92 18 42 0 94 -5 115 -11 22 -6 69 -14 105 -18 l66 -6 46 -130
c142 -405 300 -658 510 -820 62 -49 159 -108 159 -98 0 4 -31 63 -69 132 -201
363 -226 514 -120 722 16 34 28 63 25 66 -3 3 -19 0 -37 -6 -45 -15 -76 -14
-83 5 -11 29 -7 94 7 94 6 0 109 -11 227 -24 431 -49 743 -56 1005 -22 89 11
90 11 87 38 -4 41 24 50 157 50 131 0 205 -14 340 -66 l90 -35 43 43 c27 27
66 52 103 66 105 40 356 39 634 -2 72 -11 73 -11 43 -24 -17 -7 -35 -21 -41
-32 -10 -18 -2 -17 84 14 201 72 400 110 619 121 136 6 139 7 153 32 120 220
265 483 323 585 39 71 108 200 151 287 l80 159 -103 122 c-255 303 -498 631
-749 1008 -277 416 -385 544 -511 603 -51 25 -69 38 -73 57 -9 39 -63 124
-149 234 -70 89 -136 199 -136 226 0 18 197 12 285 -9 91 -22 108 -29 298
-118 76 -35 141 -62 144 -60 11 12 -9 43 -37 59 -38 22 -38 34 3 51 103 43
176 27 292 -66 82 -66 128 -93 177 -108 45 -13 36 23 -17 62 -24 19 -45 40
-45 48 0 11 4 11 18 -2 11 -10 35 -17 60 -17 22 0 94 -7 158 -15 367 -48 685
-173 954 -374 96 -71 265 -235 343 -331 369 -457 573 -1091 613 -1898 6 -133
8 -142 24 -127 42 38 54 5 48 -123 -5 -106 -33 -168 -115 -253 l-55 -58 23
-30 c12 -16 28 -32 36 -35 17 -7 73 -95 73 -116 0 -9 -12 -27 -26 -41 -39 -36
-60 -85 -90 -205 -31 -125 -55 -182 -90 -214 l-24 -23 0 29 c0 17 -6 39 -14
49 -13 19 -15 18 -19 -15 -35 -236 -63 -341 -132 -485 -85 -178 -194 -324
-371 -496 -221 -214 -427 -357 -920 -640 -227 -130 -252 -141 -357 -168 -260
-67 -436 -85 -812 -85 -408 1 -741 35 -1157 118 l-158 32 0 -24 c0 -35 38 -66
117 -96 62 -24 114 -59 102 -70 -8 -7 -239 64 -306 94 -37 17 -85 44 -105 60
-20 17 -40 30 -44 30 -10 0 2 -91 17 -123 11 -25 17 -27 74 -27 74 0 121 -15
136 -42 20 -36 -6 -46 -54 -20 -51 27 -67 28 -67 3 0 -63 174 -119 280 -91 60
16 80 35 80 78 0 34 0 35 37 29 54 -9 124 -67 80 -67 -26 0 -67 -40 -67 -66 0
-14 -4 -34 -10 -44 -9 -16 -1 -20 68 -38 175 -47 386 -72 782 -92 350 -18 512
-35 634 -66 l59 -15 46 45 c113 111 255 132 608 90 46 -5 52 -4 58 15 11 35
126 144 195 184 36 20 100 50 142 65 43 15 78 33 78 40 0 6 7 12 15 12 26 0
16 -17 -47 -79 -33 -34 -59 -64 -55 -67 12 -12 97 -5 132 12 30 14 44 31 73
93 39 79 56 95 67 62 11 -36 36 -34 95 7 30 22 70 43 87 46 17 4 37 14 44 22
6 8 18 14 26 14 8 0 22 7 31 16 11 12 17 13 20 5 6 -18 -38 -61 -63 -61 -12 0
-34 -14 -51 -31 -16 -17 -54 -48 -84 -69 -81 -56 -102 -81 -98 -121 2 -19 6
-34 9 -34 9 0 413 320 529 420 236 202 381 359 501 543 114 175 180 362 194
548 7 84 6 88 -9 67 -9 -12 -32 -25 -51 -29 -20 -3 -35 -12 -35 -20 0 -8 -7
-14 -15 -14 -8 0 -15 -9 -15 -19 0 -23 -45 -79 -55 -69 -3 3 -2 14 3 25 5 10
18 36 28 57 10 22 26 41 34 43 9 3 26 34 40 74 13 39 45 102 71 142 37 57 55
99 83 197 37 134 65 206 95 249 11 15 23 42 28 61 12 44 43 55 36 13 -3 -15
-11 -32 -18 -38 -6 -5 -20 -44 -29 -85 -9 -41 -32 -113 -51 -160 l-34 -85 39
-40 c21 -22 43 -57 50 -78 10 -32 9 -43 -7 -74 -10 -21 -33 -48 -51 -60 l-33
-22 36 -7 c74 -14 132 38 166 147 42 135 7 284 -61 261 -30 -10 35 49 86 78
86 48 98 100 39 163 -24 25 -35 46 -35 67 0 28 2 30 40 30 87 0 107 61 92 275
-10 138 -7 206 13 257 5 11 -2 20 -22 30 -19 9 -29 22 -31 41 -5 37 19 35 53
-5 25 -29 28 -31 40 -15 12 17 39 156 31 164 -2 2 -20 -13 -40 -34 -30 -30
-40 -35 -54 -27 -30 19 -27 44 5 44 22 0 31 8 43 33 9 19 24 33 36 35 19 3 21
8 17 41 -7 49 18 144 60 228 43 87 52 122 33 129 -23 9 -66 78 -82 131 -8 26
-19 120 -25 208 -15 227 -41 329 -104 403 -20 24 -31 30 -40 22 -11 -9 -25 -4
-25 10 0 18 83 50 146 56 38 4 79 11 92 15 22 9 27 1 93 -138 155 -325 213
-438 217 -418 7 31 -17 121 -66 250 -38 101 -45 132 -46 195 -1 86 10 150 26
150 6 0 26 -14 45 -31 19 -16 37 -28 40 -26 7 8 -26 136 -63 247 -108 320
-309 625 -609 925 l-140 140 -3 -38 c-2 -26 2 -45 14 -58 33 -37 -10 -21 -54
19 -40 37 -42 41 -42 100 0 87 -11 109 -62 123 -33 9 -67 9 -143 0 -55 -6
-118 -11 -141 -11 -38 0 -42 3 -60 42 -28 62 -88 139 -203 261 -56 59 -118
133 -139 165 -36 55 -38 57 -62 45 -54 -28 -128 -11 -290 66 -83 39 -99 50
-83 55 13 4 24 19 28 36 9 39 24 38 62 -5 38 -43 73 -47 73 -9 0 38 -61 96
-97 92 -20 -2 -29 -9 -31 -25 -8 -56 -105 5 -179 112 l-21 29 87 42 c293 140
550 391 655 642 l26 61 -22 66 c-20 58 -21 70 -9 113 6 26 39 93 72 149 73
123 89 172 89 272 0 152 -52 579 -86 716 -25 96 -85 213 -194 377 -93 138
-169 274 -182 326 -4 13 -20 23 -50 30 -143 36 -318 180 -318 262 0 24 -7 28
-112 63 -395 130 -748 156 -1113 82 -645 -130 -1110 -588 -1237 -1218 -19 -95
-23 -144 -23 -319 0 -115 -3 -208 -6 -208 -4 0 -12 7 -19 15 -20 24 -43 19
-36 -7 4 -13 9 -86 12 -163 6 -133 5 -143 -19 -209 l-26 -70 120 -285 c67
-158 147 -342 180 -410 32 -68 59 -125 59 -126 0 -1 -28 -5 -63 -7 -75 -6
-122 -29 -202 -98 -33 -29 -83 -63 -111 -76 l-52 -25 -52 21 c-124 49 -222
133 -427 368 -171 195 -263 269 -375 300 l-36 10 45 -62 c25 -33 67 -99 94
-145 53 -89 152 -282 147 -285 -2 -1 -23 -8 -47 -15 -24 -7 -54 -23 -66 -36
-24 -23 -53 -100 -42 -111 16 -16 65 13 115 67 61 66 82 74 82 30 0 -19 16
-50 46 -91 33 -43 48 -73 51 -103 l5 -42 -108 -39 c-214 -77 -348 -160 -405
-253 l-22 -35 -24 83 c-37 130 -99 247 -243 464 -146 219 -204 329 -222 417
-7 32 -17 58 -24 58 -6 0 -33 -9 -59 -21 l-47 -21 -69 70 c-146 149 -350 249
-616 303 -152 31 -463 38 -621 15 -240 -36 -437 -105 -600 -212 -52 -35 -97
-63 -98 -61 -1 1 5 20 13 42 31 83 32 80 -44 81 -57 0 -84 7 -166 42 -98 43
-147 52 -202 39 -25 -6 -33 -2 -49 19 -18 25 -18 26 12 87 16 34 44 92 61 128
37 80 80 129 113 129 12 0 38 -9 56 -20 46 -28 82 -27 82 3 0 19 -9 28 -40 40
-33 13 -40 20 -40 42 0 23 3 26 23 21 57 -16 101 -18 142 -6 25 7 45 14 45 17
0 2 -7 20 -15 39 -8 20 -12 40 -9 45 8 14 118 11 134 -3 12 -11 12 -10 1 4
-16 22 -6 52 26 78 21 17 40 20 113 20 86 0 89 1 113 30 30 35 37 37 37 10 0
-29 36 -60 69 -60 24 0 31 5 36 30 9 43 -12 78 -79 130 -76 57 -166 144 -166
158 0 7 11 12 24 12 29 0 44 19 25 30 -9 6 -10 12 -2 22 6 7 14 31 18 52 15
84 53 139 222 318 40 43 73 85 73 93 0 19 8 19 84 -1 158 -40 301 -134 531
-351 219 -205 280 -258 385 -328 107 -72 202 -117 305 -146 91 -25 95 -25 95
11 0 20 -5 30 -15 30 -8 0 -15 7 -15 15 0 17 16 20 25 5 3 -5 15 -10 26 -10
10 0 36 -16 58 -35 42 -38 65 -44 75 -19 3 9 6 17 6 19 0 2 -27 20 -60 40 -33
20 -69 48 -80 62 -24 31 -28 93 -5 93 27 0 85 -28 123 -60 42 -35 52 -37 52
-12 0 28 -37 81 -72 103 -44 27 -128 22 -161 -10 l-24 -21 -18 40 c-21 47 -63
86 -132 126 -26 15 -49 28 -51 29 -1 1 3 16 9 34 28 80 -25 144 -208 254 -116
70 -163 113 -163 150 0 17 -14 28 -59 49 -71 33 -148 101 -191 169 -32 50 -80
166 -80 194 0 20 30 19 58 -1 13 -9 25 -14 28 -11 3 2 9 32 15 67 14 90 46
145 157 268 81 90 139 170 129 178 -1 1 -36 -4 -77 -12 -156 -28 -352 -12
-420 34 l-25 17 42 5 c54 8 59 13 39 42 -9 12 -16 32 -16 44 0 29 -25 51 -34
29 -8 -22 -60 -16 -64 8 -3 14 4 17 33 17 27 0 47 8 71 30 63 55 173 63 270
21 l43 -19 -20 31 c-27 45 -24 59 21 134 66 110 53 148 -66 193 -94 35 -214
42 -483 29 -134 -6 -270 -9 -302 -6 l-59 5 0 -53 c0 -29 -7 -72 -15 -95 -25
-70 -20 -80 61 -143 41 -32 74 -62 74 -65 0 -12 -112 -42 -152 -42 -45 0 -47
-10 -16 -75 17 -34 20 -50 12 -62 -14 -23 -34 -28 -34 -9 0 9 -8 24 -18 34
-10 10 -22 26 -25 36 -9 22 -41 17 -45 -7 -3 -12 3 -17 22 -17 31 0 34 -15 6
-30 -21 -11 -43 -3 -109 45 -43 32 -61 32 -61 1 0 -31 -14 -40 -39 -27 -18 10
-19 6 -23 -77 -3 -84 -6 -94 -57 -195 -73 -145 -77 -193 -26 -321 7 -16 6 -17
-13 -7 -45 24 -60 14 -97 -59 -19 -38 -44 -74 -54 -80 -18 -9 -19 -13 -7 -48
49 -139 24 -231 -127 -466 -115 -180 -157 -293 -157 -428 l0 -67 -55 -20 c-31
-12 -60 -21 -66 -21 -21 0 -89 -41 -99 -60 -9 -18 -6 -19 46 -22 80 -4 91 -24
43 -75 -20 -21 -64 -80 -98 -130 -34 -51 -64 -93 -67 -93 -17 0 -65 34 -93 65
-33 38 -41 88 -21 139 11 31 4 32 -46 11 -61 -25 -93 15 -59 75 31 54 21 72
-62 115 -60 31 -85 51 -111 88 -35 51 -37 66 -5 46 15 -9 26 -8 51 5 17 9 40
16 52 16 24 0 25 11 6 48 -25 48 -72 83 -157 117 l-82 34 -36 -19 c-20 -10
-73 -32 -118 -49 l-81 -32 -91 93 c-102 104 -142 173 -161 278 -17 90 -18 92
-79 141 -281 227 -423 797 -331 1332 10 62 21 119 25 127 4 11 -3 15 -30 16
-20 0 -43 8 -52 17 -15 15 -13 25 26 134 120 328 305 606 535 801 l49 42 -37
0 c-20 0 -45 -6 -56 -12 -15 -10 -22 -10 -32 0 -10 10 -8 14 9 18 18 5 21 11
16 38 -8 49 14 112 51 150 19 18 76 53 127 78 94 45 143 83 155 120 7 24 6 25
-29 33 -20 5 -27 4 -27 -8 0 -14 -48 -53 -56 -44 -9 9 27 65 45 70 25 6 78
144 93 242 9 60 16 78 35 90 13 9 47 40 76 70 47 49 58 55 94 55 39 0 41 2 79
67 52 89 183 225 289 301 211 149 520 258 875 307 264 37 698 30 1005 -15 308
-45 666 -143 826 -225 28 -15 31 -15 26 -1 -11 29 11 27 118 -9 130 -43 177
-66 204 -101 27 -34 44 -99 37 -136 -5 -28 -5 -28 42 -28 26 0 76 9 110 20 93
29 104 27 125 -23 26 -64 68 -110 177 -192 92 -69 181 -157 163 -162 -4 -1
-25 -4 -45 -8 -51 -8 -48 -26 10 -54 197 -95 402 -291 536 -512 213 -352 357
-916 391 -1529 8 -145 13 -170 32 -170 19 0 14 -54 -27 -260 -73 -365 -214
-704 -545 -1306 -143 -258 -308 -584 -300 -592 2 -2 41 23 87 56 394 284 678
695 943 1362 45 112 60 164 67 230 11 99 38 156 85 179 26 13 33 22 33 48 0
17 14 103 32 190 27 135 31 181 32 313 1 181 -15 258 -108 523 -80 229 -99
314 -94 412 5 80 28 146 61 174 13 10 18 4 31 -36 8 -26 26 -100 40 -164 26
-127 57 -208 88 -236 l21 -18 -7 66 c-7 72 -2 99 19 99 9 0 16 -20 20 -57 10
-100 26 -166 53 -215 24 -46 58 -86 66 -77 5 6 -127 554 -168 696 -100 346
-227 593 -381 743 -83 81 -82 76 35 -170 48 -102 96 -210 106 -240 24 -72 26
-258 3 -310 l-15 -35 -92 185 c-240 481 -556 918 -966 1332 -69 70 -126 130
-126 133 0 3 13 5 28 5 29 0 62 26 62 48 0 17 -19 15 -124 -14 -61 -18 -103
-24 -121 -20 -26 7 -85 59 -85 76 0 4 15 18 34 31 69 47 79 109 17 109 -81 0
-218 70 -424 218 l-148 106 48 12 c40 10 73 34 73 53 0 3 -22 7 -49 8 -79 3
-103 20 -214 156 -21 26 -51 54 -67 62 l-30 16 0 -39 c0 -68 -57 -116 -91 -76
-28 34 -74 47 -192 54 -66 4 -123 12 -129 18 -9 9 -7 12 10 12 29 0 62 34 62
65 0 24 -3 25 -58 25 -65 0 -148 21 -204 52 -35 20 -38 20 -62 5 -15 -10 -30
-33 -36 -57 -12 -45 -33 -60 -83 -60 -75 0 -97 79 -56 203 27 81 42 103 76
111 15 4 136 11 268 16 136 5 257 14 280 21 l40 12 -30 8 c-16 4 -110 15 -207
24 -189 17 -259 32 -302 66 -32 25 -34 61 -6 107 l20 32 -228 -1 c-125 -1
-272 -5 -327 -10z m-4635 -4807 c-101 -48 -179 -64 -219 -43 -29 16 -26 28 12
48 52 27 126 41 217 41 l85 0 -95 -46z m360 -4 c0 -10 6 -18 14 -18 30 0 29
-53 -1 -65 -20 -7 -35 13 -29 38 5 21 -2 21 -69 2 -48 -14 -57 -14 -89 -1 -20
8 -36 21 -36 28 0 31 24 39 117 37 83 -2 93 -4 93 -21z m260 -123 c0 -40 4
-48 31 -64 17 -11 70 -29 116 -40 109 -28 153 -46 153 -65 0 -8 11 -16 26 -18
39 -4 50 -28 31 -66 -14 -30 -14 -32 1 -32 9 1 28 7 42 15 14 8 34 14 45 15
18 0 20 -7 20 -64 0 -60 3 -68 50 -135 97 -139 92 -125 67 -197 -30 -86 -29
-122 3 -134 14 -5 39 -7 57 -3 l31 6 -8 -64 c-5 -35 -9 -88 -9 -117 -1 -50 2
-56 38 -89 38 -35 38 -35 19 -55 -26 -25 -77 -26 -111 -1 -15 11 -45 46 -67
79 l-40 59 -13 -55 c-19 -79 -27 -367 -13 -470 14 -108 45 -201 76 -230 l24
-23 -24 -46 c-13 -25 -43 -68 -66 -96 -55 -65 -79 -119 -79 -177 0 -36 -4 -48
-15 -48 -14 0 -21 18 -27 70 -3 23 -11 17 -93 -65 -50 -50 -135 -137 -189
-194 -157 -163 -268 -221 -372 -193 -31 8 -51 9 -64 2 -23 -12 -44 -72 -35
-100 6 -19 2 -20 -64 -20 -65 0 -87 9 -61 25 17 11 11 25 -16 37 -16 7 -27 23
-31 41 -5 27 -8 28 -41 22 -19 -3 -90 -29 -157 -56 -116 -47 -178 -59 -219
-43 -39 15 -3 54 49 54 14 0 36 5 47 11 20 11 18 13 -25 40 -78 48 -307 137
-307 119 0 -24 15 -40 36 -40 30 0 31 -16 2 -24 -96 -25 -265 61 -419 214
-120 120 -150 192 -229 543 -12 53 -28 103 -36 111 -16 17 -19 36 -4 36 6 0
10 -4 10 -10 0 -5 7 -10 15 -10 22 0 18 40 -7 67 -24 26 -38 29 -38 9 0 -7
-12 -21 -26 -31 -24 -16 -27 -16 -45 1 -10 9 -19 24 -19 32 0 12 4 11 21 -4
16 -14 23 -16 26 -6 3 7 11 18 18 25 9 9 13 46 13 118 1 135 21 211 122 462
44 109 80 210 80 225 0 32 -16 52 -42 52 -10 0 -18 4 -18 9 0 18 42 61 61 61
10 0 27 9 36 20 11 13 30 20 53 20 19 0 40 4 47 8 15 10 6 49 -14 56 -8 3 -12
10 -8 15 3 6 24 -2 47 -18 l42 -28 54 52 c112 111 204 141 482 160 121 8 228
21 263 31 52 15 57 19 57 46 0 32 -21 78 -44 97 -26 22 -19 49 17 67 76 40
265 25 385 -31 30 -14 58 -25 62 -25 5 0 30 17 57 37 65 50 92 63 131 63 31 0
32 -1 32 -45z m9018 -36 c527 -57 897 -293 919 -587 3 -37 10 -73 16 -79 5 -7
26 -13 47 -13 24 0 40 -5 44 -15 3 -8 2 -59 -1 -113 -7 -122 1 -142 57 -142
22 0 40 -3 40 -6 0 -3 -9 -19 -21 -35 -16 -23 -28 -29 -59 -29 -35 0 -44 7
-108 75 -44 47 -73 71 -78 64 -3 -6 -7 -122 -8 -258 -1 -259 8 -353 45 -459
11 -32 22 -64 25 -72 4 -11 -7 -21 -30 -33 -53 -25 -122 -92 -163 -159 l-36
-58 -58 0 c-163 0 -315 -77 -384 -195 -29 -49 -55 -152 -55 -221 0 -60 -24
-89 -105 -126 -46 -21 -63 -23 -205 -22 -349 3 -590 9 -590 16 0 3 8 20 17 37
10 16 15 32 13 35 -3 2 -32 -5 -65 -16 -46 -15 -77 -19 -132 -16 -170 11 -293
126 -468 436 -32 57 -64 106 -72 109 -18 7 -17 23 2 23 8 0 15 -4 15 -9 0 -16
40 -23 56 -10 21 17 12 62 -45 234 -45 138 -46 142 -46 270 0 212 46 379 210
764 47 111 94 225 105 254 48 128 247 257 492 319 176 44 426 59 626 37z
m-7805 -1195 c163 -221 372 -438 587 -610 80 -64 314 -228 373 -260 16 -9 15
-14 -16 -46 -19 -20 -62 -90 -96 -157 -35 -67 -78 -141 -97 -165 -39 -52 -104
-86 -162 -86 l-42 0 0 -65 0 -65 -27 7 c-16 5 -95 8 -178 7 -123 -1 -190 -7
-370 -37 -121 -20 -276 -41 -345 -47 -132 -10 -271 -2 -277 16 -6 17 36 63 77
84 42 21 174 40 283 40 72 0 107 11 107 35 0 24 -38 37 -90 30 -51 -7 -71 5
-50 30 8 10 50 14 165 17 144 3 156 5 177 25 12 12 18 26 14 30 -13 13 -216 7
-311 -10 -49 -9 -118 -19 -153 -23 l-63 -7 95 189 c180 359 255 591 291 902 8
70 15 163 15 206 0 48 4 76 9 71 5 -6 43 -55 84 -111z m3178 -930 c13 -16 20
-16 116 2 29 6 33 3 39 -22 6 -25 32 -53 83 -90 12 -10 8 -15 -26 -33 -124
-63 -345 -96 -475 -72 -98 19 -98 19 -60 96 17 36 27 65 22 65 -6 0 -10 7 -10
15 0 21 17 19 30 -5 14 -26 39 -25 94 2 42 20 46 20 70 4 14 -9 26 -21 26 -26
0 -6 6 -10 14 -10 7 0 21 20 30 45 19 49 27 53 47 29z m524 -225 c59 -16 125
-51 125 -66 0 -16 70 -82 88 -83 13 0 15 -10 6 -34 -4 -12 -20 -16 -55 -16
l-49 0 0 50 c0 46 -2 50 -24 50 -13 0 -70 -13 -127 -30 -57 -16 -112 -30 -121
-30 -28 0 -21 -35 12 -64 50 -41 140 -46 182 -9 15 13 20 9 57 -46 123 -181
298 -326 464 -386 58 -21 62 -25 65 -56 1 -19 12 -74 23 -123 11 -49 19 -115
18 -148 -2 -35 2 -63 9 -70 18 -18 15 -33 -18 -95 -34 -64 -40 -134 -14 -171
20 -28 33 -7 -180 -282 -275 -354 -419 -588 -505 -821 l-32 -86 -137 -32
c-218 -51 -287 -61 -447 -67 -115 -5 -172 -3 -244 10 -51 9 -98 19 -102 22 -5
3 -2 16 7 30 20 29 14 71 -17 121 -24 39 -92 88 -108 78 -14 -8 -15 -155 -1
-155 6 0 10 -7 10 -15 0 -17 -16 -21 -22 -5 -1 5 -43 21 -91 35 -99 29 -276
102 -354 147 -29 16 -53 25 -53 19 0 -6 -7 -11 -15 -11 -18 0 -19 12 -3 28 9
9 9 15 1 23 -9 9 -19 6 -41 -10 -17 -11 -36 -21 -43 -21 -32 0 76 -88 301
-246 104 -73 222 -183 266 -248 l33 -50 93 -1 c115 -1 174 -25 268 -109 43
-39 68 -55 79 -50 89 38 100 37 204 -11 59 -27 98 -30 166 -9 23 7 23 7 6 -19
-9 -14 -15 -36 -13 -49 3 -20 10 -23 50 -26 l48 -3 -20 -39 c-11 -22 -20 -52
-20 -69 0 -29 0 -29 -77 -38 -43 -4 -190 -8 -328 -8 -264 0 -324 8 -419 55
l-40 19 -15 -22 c-8 -12 -63 -72 -121 -132 -59 -61 -119 -132 -134 -157 -26
-45 -28 -46 -59 -37 -18 5 -120 25 -227 44 -192 34 -291 60 -337 91 -22 14
-26 13 -64 -19 -47 -41 -91 -53 -254 -73 -158 -18 -155 -19 -122 12 15 14 26
31 24 37 -7 23 -77 48 -165 59 -105 13 -107 18 -33 85 58 54 51 59 -88 69
-134 9 -319 0 -536 -26 -236 -28 -445 -48 -541 -53 l-81 -4 -9 31 c-6 21 -16
32 -32 34 -29 4 -27 11 37 105 44 66 142 167 161 167 4 0 10 44 13 98 8 121
52 299 107 427 77 182 163 319 415 664 82 113 177 250 213 305 60 96 182 331
182 353 0 12 90 53 115 53 12 0 14 6 8 28 -14 47 -6 99 22 151 l28 50 236
-119 237 -118 22 -148 c26 -169 59 -276 103 -340 30 -43 91 -87 140 -99 25 -6
25 -7 21 -93 -2 -48 -8 -94 -13 -103 -16 -32 15 -44 77 -31 37 7 63 8 80 2 23
-9 25 -8 22 12 -3 21 -9 23 -65 26 -35 2 -63 5 -63 8 0 3 10 24 21 46 17 33
23 70 29 167 9 146 7 151 -73 151 -43 0 -48 2 -42 18 18 42 17 61 -4 74 -12 7
-21 19 -21 27 0 12 3 12 12 3 27 -27 71 -10 79 32 3 15 20 6 99 -54 52 -40
154 -121 226 -181 172 -140 373 -293 378 -288 5 5 -126 237 -188 334 -75 117
-211 290 -305 388 -88 91 -232 219 -290 257 l-23 16 29 54 c16 30 44 64 61 75
17 11 31 22 32 25 0 3 -14 13 -30 22 -18 10 -30 25 -30 38 0 31 26 75 55 94
91 60 134 129 101 162 -20 20 -21 53 -1 60 8 4 15 12 15 20 0 8 7 14 15 14 17
0 20 -16 5 -25 -17 -10 -12 -65 5 -65 52 0 91 33 177 149 18 24 45 53 60 64
26 20 26 20 115 -4 70 -18 114 -23 218 -24 186 0 284 24 687 169 199 71 327
91 423 65z m-2003 -59 c46 -18 94 -30 122 -30 28 0 46 -4 46 -12 0 -6 -31 -71
-69 -143 -115 -219 -168 -362 -186 -497 -6 -46 -7 -48 -39 -48 -79 0 -221 63
-301 134 l-40 35 145 288 c79 158 149 294 154 302 14 19 76 8 168 -29z m-1682
-685 c0 -40 23 -86 70 -140 80 -93 91 -159 37 -240 -18 -28 -55 -90 -83 -139
-59 -107 -117 -174 -178 -206 -44 -24 -45 -26 -62 -100 -45 -202 -148 -425
-305 -660 -93 -139 -179 -250 -497 -639 -78 -96 -142 -178 -142 -182 0 -4 16
-16 35 -28 54 -32 48 -59 -21 -95 -71 -37 -141 -101 -254 -231 l-89 -102 136
-249 c75 -137 178 -321 228 -409 l92 -159 118 -23 c145 -29 281 -81 447 -173
70 -38 134 -70 142 -70 7 0 19 7 26 15 11 13 9 20 -13 43 -58 61 -31 82 107
82 93 0 161 -18 293 -79 60 -27 128 -54 152 -61 50 -13 114 -5 109 13 -7 22
-71 48 -103 42 -17 -3 -25 -2 -20 3 13 12 199 48 341 67 307 40 840 44 1389
10 132 -8 348 -19 480 -26 132 -6 250 -13 263 -15 22 -4 21 -7 -28 -100 -36
-67 -50 -106 -50 -134 0 -22 -2 -40 -5 -40 -12 0 -84 40 -90 50 -7 12 -99
-127 -153 -230 -31 -59 -33 -71 -29 -127 3 -41 1 -63 -6 -63 -6 0 -42 -19 -80
-42 -47 -29 -83 -42 -118 -46 -29 -3 -49 -9 -49 -17 0 -32 -70 -145 -127 -206
-75 -79 -119 -100 -158 -75 -13 9 -29 16 -34 16 -13 0 -41 -53 -41 -77 0 -38
-14 -45 -54 -28 -58 24 -86 12 -168 -71 -58 -59 -78 -74 -98 -72 -24 3 -25 6
-28 81 -2 42 -5 77 -9 77 -3 0 -28 -12 -55 -27 -50 -27 -98 -83 -137 -161 -21
-42 -21 -45 -7 -97 9 -29 24 -73 35 -97 18 -43 18 -43 -4 -88 -28 -56 -111
-135 -168 -160 -53 -24 -171 -43 -210 -34 -25 5 -35 0 -71 -34 -167 -162 -475
-254 -851 -254 -240 0 -437 33 -584 98 -87 39 -121 27 -121 -40 0 -14 -2 -26
-6 -26 -3 0 -31 17 -62 38 -31 21 -109 69 -172 107 -324 193 -451 315 -525
502 -12 32 -25 66 -29 77 -6 16 -10 14 -46 -18 -100 -90 -158 -56 -266 157
-67 131 -99 166 -126 139 -9 -9 -9 -12 0 -12 7 0 12 -7 12 -15 0 -8 5 -15 10
-15 6 0 10 -7 10 -15 0 -19 -16 -19 -24 0 -3 8 -12 15 -20 15 -7 0 -16 7 -20
15 -3 8 -56 40 -118 71 -201 101 -283 162 -294 220 -3 18 -1 58 6 89 l12 56
-83 77 c-219 203 -341 472 -389 857 -15 117 -15 431 -1 565 57 523 233 1028
471 1349 33 45 60 85 60 91 0 5 -14 16 -30 25 -35 18 -42 63 -12 81 9 6 35 43
56 82 46 84 82 122 128 132 30 6 37 3 85 -43 56 -54 68 -56 130 -18 41 26 64
61 74 114 8 44 -3 77 -24 77 -7 0 -32 -14 -55 -31 -56 -41 -78 -36 -75 18 2
55 45 136 99 189 25 24 97 75 160 114 63 40 128 83 144 97 32 27 42 13 15 -23
-8 -10 -15 -23 -15 -29 0 -5 40 32 90 82 287 295 617 460 1080 542 147 26 273
38 428 40 l122 1 0 -25z m5952 -454 c14 -11 51 -72 83 -135 31 -63 75 -133 96
-156 21 -23 39 -51 39 -62 0 -36 60 -201 101 -278 74 -137 152 -231 394 -480
259 -264 352 -379 415 -505 36 -75 85 -223 76 -233 -7 -6 -88 53 -122 90 -17
18 -62 76 -99 128 -79 112 -104 140 -121 140 -24 0 -26 -39 -5 -66 12 -15 21
-32 21 -40 0 -7 5 -14 12 -16 6 -2 8 -10 4 -16 -5 -9 -16 -4 -37 15 -16 15
-29 33 -29 39 0 21 -167 184 -188 184 -16 0 2 -29 87 -143 58 -78 171 -235
250 -347 166 -236 341 -472 430 -580 70 -86 77 -116 34 -150 l-28 -21 32 15
c49 24 63 44 63 87 0 50 -20 89 -132 261 -114 177 -139 233 -146 327 l-5 73
23 -12 c41 -22 200 -182 288 -290 48 -58 112 -135 144 -171 l57 -66 -85 -154
c-47 -85 -107 -188 -132 -230 l-47 -76 -355 -7 c-195 -3 -459 -9 -586 -12
-126 -4 -283 -3 -348 1 -129 8 -123 3 -94 73 11 28 11 34 -1 42 -22 13 -36 3
-81 -61 -63 -90 -125 -128 -185 -113 -21 5 -25 12 -25 44 0 21 5 51 11 67 6
15 15 39 19 53 l7 26 -46 -23 c-65 -32 -153 -38 -303 -19 -154 20 -250 20
-303 1 -22 -8 -42 -15 -44 -15 -2 0 4 11 13 25 22 34 13 45 -35 45 -48 0 -53
22 -9 45 54 28 38 40 -52 40 -100 0 -151 22 -233 97 -51 46 -54 48 -64 29 -6
-11 -11 -40 -11 -65 0 -33 -6 -52 -20 -66 -25 -25 -31 -25 -83 2 -62 31 -109
28 -203 -15 -45 -20 -84 -37 -88 -37 -3 0 -6 13 -6 29 0 22 8 36 31 52 l32 22
-24 10 c-13 5 -71 17 -127 28 -128 23 -173 35 -195 51 -17 12 -17 16 -2 46 9
17 16 56 16 86 l0 53 52 11 c29 6 97 18 152 27 113 18 215 44 215 55 0 24 -80
26 -170 4 -66 -16 -195 -23 -207 -10 -12 11 31 98 59 119 21 16 31 18 55 9
l29 -10 -13 52 c-7 28 -11 63 -7 78 5 27 5 27 39 11 28 -13 39 -14 63 -4 27
11 29 16 29 69 1 31 8 77 17 101 9 24 16 59 16 77 0 26 4 34 18 34 24 0 46
-24 65 -72 8 -20 25 -41 36 -47 17 -10 23 -7 37 14 29 45 43 98 44 168 0 84
-12 110 -86 172 -61 52 -84 93 -84 150 0 30 17 59 103 174 56 76 163 221 237
322 171 234 382 451 536 552 170 112 322 172 531 210 68 12 123 27 123 32 0 6
-7 21 -16 33 -14 20 -14 22 4 22 11 0 30 -9 44 -19z m2778 -5440 c0 -6 -4 -13
-10 -16 -16 -10 -12 -52 10 -92 23 -44 26 -73 6 -73 -8 0 -33 -9 -57 -20 -63
-28 -81 -27 -69 6 6 14 10 47 10 73 0 53 9 69 60 105 39 27 50 31 50 17z"/>
<path d="M4901 9639 c-62 -11 -127 -44 -148 -76 l-15 -22 154 2 c113 1 159 -1
177 -12 28 -16 41 -3 33 35 -5 30 -56 74 -85 74 -12 0 -31 2 -42 4 -11 2 -44
0 -74 -5z"/>
<path d="M6021 8023 c-22 -4 -23 -8 -18 -54 17 -141 129 -239 272 -239 74 0
115 16 115 46 0 47 -40 130 -83 172 -70 68 -175 96 -286 75z"/>
<path d="M5688 7599 c-26 -14 -24 -79 3 -113 41 -52 123 -72 184 -44 47 21 25
110 -38 148 -35 22 -119 27 -149 9z"/>
<path d="M6800 7463 c0 -10 12 -36 27 -57 l26 -39 -26 -23 c-15 -13 -23 -26
-17 -29 24 -15 147 -49 144 -40 -3 6 7 45 20 86 14 42 22 86 19 98 -5 19 -10
21 -37 14 -40 -10 -83 -9 -123 1 -28 6 -33 5 -33 -11z"/>
<path d="M7690 7118 c-25 -41 -25 -49 0 -81 20 -25 73 -47 114 -47 16 0 18 6
13 47 -4 40 -12 54 -43 80 -20 18 -43 33 -51 33 -7 0 -22 -15 -33 -32z"/>
<path d="M6550 6951 c-32 -121 86 -271 214 -271 55 0 69 22 61 94 -8 73 -27
122 -63 159 -29 30 -105 57 -163 57 -36 0 -39 -2 -49 -39z"/>
<path d="M4212 8239 c-102 -17 -209 -85 -233 -146 -14 -37 -11 -89 6 -103 10
-9 49 -11 132 -8 138 5 201 26 257 89 40 44 74 138 54 150 -13 9 -127 30 -149
28 -8 -1 -38 -5 -67 -10z"/>
<path d="M11227 6913 c-14 -13 -7 -68 14 -109 35 -74 162 -166 205 -150 13 5
13 10 -4 33 -10 16 -35 57 -54 93 -53 96 -133 162 -161 133z"/>
<path d="M10430 5844 c-52 -8 -152 -15 -221 -16 -136 -3 -150 -11 -81 -44 74
-36 263 -10 380 51 53 27 52 28 -78 9z"/>
<path d="M9430 16081 c0 -14 79 -69 145 -101 33 -16 94 -38 135 -49 73 -19
200 -38 190 -28 -15 15 -442 187 -465 187 -3 0 -5 -4 -5 -9z"/>
<path d="M3620 13200 c0 -11 7 -37 15 -57 8 -19 15 -53 15 -74 0 -49 17 -51
65 -6 40 36 53 85 36 130 -10 25 -14 27 -71 27 -54 0 -60 -2 -60 -20z"/>
<path d="M11666 13068 c-8 -151 1 -210 35 -231 77 -48 108 163 43 289 -16 31
-39 63 -50 71 -21 14 -21 13 -28 -129z"/>
<path d="M3771 12676 c-18 -22 -24 -72 -12 -108 17 -53 122 -141 107 -90 -3 9
-10 48 -16 86 -12 78 -22 101 -49 116 -14 7 -22 6 -30 -4z"/>
<path d="M8520 11685 c0 -3 13 -33 29 -67 42 -88 46 -112 27 -149 -9 -18 -16
-33 -16 -33 0 -1 16 -2 37 -4 20 -1 58 -16 85 -32 26 -17 50 -30 52 -30 2 0 6
14 10 30 7 36 25 38 87 11 31 -14 48 -17 61 -10 27 14 22 26 -16 39 -35 11
-83 53 -174 153 -52 57 -116 96 -159 97 -13 0 -23 -2 -23 -5z"/>
<path d="M9393 10402 c-6 -4 -13 -21 -15 -37 -2 -24 -11 -34 -45 -50 -57 -26
-63 -45 -16 -45 27 0 45 9 74 35 45 40 59 44 59 15 0 -36 29 -78 76 -110 25
-18 47 -30 48 -28 2 1 18 28 35 59 50 89 35 143 -29 105 -39 -23 -57 -20 -77
12 -9 15 -23 33 -32 40 -16 13 -59 16 -78 4z"/>
<path d="M9524 9835 c-19 -46 -19 -111 1 -119 8 -3 27 6 41 19 15 14 30 25 35
25 13 0 69 51 69 64 0 17 -64 46 -101 46 -25 0 -33 -6 -45 -35z"/>
<path d="M10573 9553 c-42 -14 -93 -63 -93 -87 0 -7 26 -23 57 -36 l57 -23 28
33 c28 34 34 63 22 108 -7 25 -14 26 -71 5z"/>
<path d="M2170 8704 c-134 -103 -150 -125 -150 -209 0 -53 1 -53 95 -11 69 31
112 70 140 127 31 60 32 93 3 113 -30 21 -36 20 -88 -20z"/>
<path d="M1823 8107 c-96 -119 -138 -207 -131 -275 3 -31 8 -24 79 100 73 127
117 223 107 233 -2 3 -27 -23 -55 -58z"/>
<path d="M15373 5414 c-8 -21 3 -161 21 -254 8 -41 17 -102 22 -135 l8 -60 7
45 c13 78 11 394 -3 408 -17 17 -48 15 -55 -4z"/>
<path d="M8819 3888 c-3 -47 3 -103 12 -106 11 -4 12 -32 1 -32 -4 0 -13 5
-19 11 -7 7 -12 4 -16 -10 -5 -20 4 -41 56 -132 15 -25 28 -58 29 -72 2 -26 5
-27 57 -27 117 0 181 -65 181 -183 0 -44 3 -57 15 -57 8 0 15 -6 15 -13 0 -7
23 -18 51 -24 97 -24 164 -99 196 -224 l17 -69 48 0 c37 0 50 4 58 19 20 38
12 69 -25 97 -40 31 -42 38 -15 61 11 10 20 21 20 24 0 4 -23 15 -50 24 -76
25 -110 58 -110 106 0 38 1 39 33 39 20 0 63 -15 100 -35 70 -37 80 -34 56 19
-13 27 -49 48 -117 66 -47 12 -56 9 -90 -32 -14 -16 -34 -28 -47 -28 -13 0
-27 -4 -30 -10 -12 -19 -33 -10 -40 18 -9 37 -71 142 -171 288 -83 121 -154
253 -154 286 0 13 -8 18 -30 18 -24 0 -30 -4 -31 -22z"/>
<path d="M9734 2955 c-32 -32 -29 -69 6 -73 14 -2 30 -10 37 -18 7 -11 25 -14
55 -12 41 3 43 5 46 36 3 25 -3 39 -27 62 -38 38 -82 40 -117 5z"/>
<path d="M9552 2900 c12 -122 124 -264 235 -296 64 -19 135 -9 187 25 l28 19
-35 11 c-45 15 -109 70 -158 137 -28 39 -46 54 -63 54 -13 0 -29 6 -35 13 -6
8 -23 12 -40 9 -26 -3 -33 1 -55 37 -17 27 -34 41 -47 41 -20 0 -21 -4 -17
-50z"/>
<path d="M1300 2388 c0 -28 35 -106 58 -131 23 -26 80 -54 125 -62 41 -8 42
-7 25 32 -25 58 -74 115 -127 149 -65 40 -81 42 -81 12z"/>
<path d="M13570 2275 c-101 -37 -160 -73 -194 -118 -27 -36 -11 -52 52 -51 58
1 114 29 168 83 41 42 92 121 77 121 -4 -1 -51 -16 -103 -35z"/>
<path d="M3470 2035 l-25 -14 55 -25 c63 -29 228 -72 237 -62 13 13 -35 62
-87 89 -60 30 -138 36 -180 12z"/>
<path d="M2790 1994 c0 -59 104 -117 177 -98 20 5 38 14 40 19 5 15 -93 71
-156 89 -30 9 -56 16 -58 16 -2 0 -3 -12 -3 -26z"/>
<path d="M4237 1906 c-27 -8 -58 -23 -69 -34 l-20 -20 23 -12 c32 -18 119 -16
156 3 30 16 43 35 43 63 0 18 -66 18 -133 0z"/>
<path d="M3620 1826 c0 -76 0 -75 80 -45 32 12 66 18 82 15 25 -5 28 -3 28 23
0 45 -30 63 -115 69 l-75 5 0 -67z"/>
<path d="M2507 1389 c54 -93 209 -174 318 -167 l50 3 -85 60 c-47 33 -98 69
-115 79 -34 22 -136 56 -166 56 -20 0 -20 -1 -2 -31z"/>
<path d="M5330 359 c-87 -7 -131 -23 -166 -60 l-29 -31 200 5 c158 4 216 9
277 25 90 24 155 55 123 59 -50 6 -347 7 -405 2z"/>
</g>
</svg>
