<?xml version="1.0" standalone="no"?>
<!DOCTYPE svg PUBLIC "-//W3C//DTD SVG 20010904//EN"
 "http://www.w3.org/TR/2001/REC-SVG-20010904/DTD/svg10.dtd">
<svg version="1.0" xmlns="http://www.w3.org/2000/svg"
 width="933.000000pt" height="933.000000pt" viewBox="0 0 933.000000 933.000000"
 preserveAspectRatio="xMidYMid meet">
<metadata>
Created by potrace 1.15, written by Peter Selinger 2001-2017
</metadata>
<g transform="translate(0.000000,933.000000) scale(0.100000,-0.100000)"
fill="#000000" stroke="none">
<path d="M4393 7094 c-539 -65 -1036 -273 -1463 -612 -116 -93 -341 -317 -434
-432 -166 -208 -333 -495 -430 -742 -62 -159 -119 -366 -153 -555 -26 -150
-28 -173 -28 -463 0 -290 2 -313 28 -463 71 -398 214 -759 429 -1082 119 -179
200 -277 358 -436 347 -348 753 -590 1215 -725 274 -80 521 -114 825 -114 304
0 551 34 825 114 462 135 868 377 1215 725 158 159 239 257 358 436 215 323
358 684 429 1082 26 150 28 173 28 463 0 290 -2 313 -28 463 -34 189 -91 396
-153 555 -97 247 -264 534 -430 742 -93 115 -318 339 -434 432 -432 343 -928
549 -1476 613 -160 19 -524 18 -681 -1z m549 -69 c488 -23 1040 -223 1450
-527 509 -376 871 -897 1034 -1487 149 -539 123 -1139 -71 -1667 -57 -154
-175 -386 -273 -534 -494 -751 -1304 -1216 -2190 -1258 -799 -39 -1533 233
-2095 777 -362 350 -613 770 -743 1240 -149 539 -123 1139 71 1667 94 256 286
583 468 799 501 595 1224 956 1992 994 77 4 165 6 195 5 30 -2 103 -6 162 -9z"/>
<path d="M4400 6864 c-607 -78 -1156 -352 -1576 -787 -402 -415 -652 -945
-713 -1509 -14 -125 -14 -441 0 -566 82 -758 503 -1443 1154 -1877 339 -226
764 -380 1177 -424 125 -14 461 -14 586 0 421 45 841 199 1192 434 640 430
1058 1115 1139 1867 14 125 14 441 0 566 -49 456 -223 891 -507 1272 -105 140
-349 387 -487 491 -393 299 -822 474 -1306 534 -152 19 -510 18 -659 -1z m610
-75 c387 -37 802 -184 1134 -402 303 -200 582 -483 770 -782 505 -803 505
-1837 0 -2640 -137 -218 -356 -464 -559 -628 -387 -312 -848 -503 -1345 -557
-135 -15 -415 -15 -550 0 -407 44 -802 185 -1134 403 -303 200 -582 483 -770
782 -505 803 -505 1837 0 2640 137 218 356 465 559 628 537 432 1187 623 1895
556z"/>
<path d="M4535 6265 c-222 -49 -418 -170 -557 -344 -66 -82 -135 -206 -159
-286 -11 -35 -25 -49 -105 -103 -388 -263 -661 -675 -756 -1143 -20 -100 -23
-143 -23 -349 0 -206 3 -249 23 -349 146 -721 702 -1277 1423 -1423 100 -20
143 -23 349 -23 206 0 249 3 349 23 721 146 1277 702 1423 1423 20 100 23 143
23 349 0 206 -3 249 -23 349 -94 464 -364 874 -749 1139 -78 53 -90 65 -101
103 -25 83 -93 206 -160 290 -142 177 -338 297 -565 345 -85 18 -309 17 -392
-1z m425 -90 c179 -47 362 -168 476 -316 59 -77 128 -206 113 -211 -8 -3 0
-29 23 -78 46 -97 59 -150 36 -143 -5 2 -8 -20 -8 -48 0 -31 4 -48 10 -44 11
7 12 2 10 -80 -2 -83 -33 -212 -74 -300 -93 -200 -234 -345 -431 -440 -79 -38
-124 -53 -237 -79 -16 -4 -28 -12 -28 -19 1 -14 29 -47 52 -62 35 -21 1083
-1248 1082 -1266 0 -11 3 -19 7 -19 5 0 6 -7 3 -15 -5 -13 5 -19 27 -17 4 1 4
-9 1 -21 -3 -12 -7 -16 -10 -9 -2 6 -10 12 -18 12 -9 0 -13 4 -10 8 2 4 1 14
-4 22 -8 13 -12 11 -25 -7 -16 -22 -18 -20 -191 176 -120 135 -184 201 -201
204 -13 2 -41 1 -61 -4 -20 -5 -406 -8 -857 -8 l-820 2 -155 -167 c-85 -92
-172 -179 -192 -193 -21 -14 -38 -30 -38 -34 0 -16 209 -225 285 -284 208
-161 435 -265 705 -322 122 -26 498 -26 620 0 400 84 702 267 978 593 105 123
227 353 281 529 58 192 66 249 66 495 0 178 -4 243 -18 310 -57 270 -161 497
-322 705 -66 85 -236 253 -298 295 -20 14 -37 33 -37 42 0 9 -6 19 -12 22 -10
5 -10 7 0 12 9 4 10 10 3 18 -5 6 -7 17 -3 23 21 35 328 -253 445 -417 81
-115 196 -341 237 -468 66 -206 93 -432 78 -652 -15 -234 -68 -425 -178 -645
-91 -183 -178 -303 -325 -450 -147 -147 -267 -234 -450 -325 -220 -110 -411
-163 -645 -178 -220 -15 -446 12 -652 78 -127 41 -353 156 -468 237 -122 87
-316 281 -403 403 -81 115 -196 341 -237 468 -110 341 -110 723 0 1064 41 126
156 354 234 463 136 188 344 383 479 447 37 17 67 36 67 41 0 14 43 46 62 47
21 0 37 27 31 51 -8 29 10 22 29 -11 9 -17 21 -30 26 -30 5 0 26 15 47 34 26
24 65 43 133 65 335 109 710 111 1051 5 47 -14 93 -35 105 -48 21 -23 54 -41
69 -37 5 1 6 -3 2 -9 -3 -5 0 -10 7 -10 8 0 6 -5 -5 -11 -9 -5 -22 -7 -27 -4
-6 3 -10 -1 -10 -10 0 -14 -3 -14 -27 -1 -92 47 -332 103 -480 112 l-103 7 0
-576 0 -577 28 0 c46 0 182 38 249 70 276 129 453 403 453 701 0 88 2 98 17
92 13 -5 15 -2 10 11 -4 10 -7 33 -7 51 0 25 -5 35 -20 40 -11 3 -20 12 -20
20 0 7 -7 21 -16 29 -8 9 -11 16 -5 16 6 0 8 7 5 15 -4 8 -10 12 -15 9 -5 -3
-9 5 -9 18 0 13 -3 34 -5 48 -3 14 -3 19 1 12 8 -16 24 -5 24 16 0 9 -13 23
-30 30 -16 7 -49 41 -73 75 -78 109 -188 200 -310 257 -203 95 -472 95 -676 0
-127 -60 -265 -180 -327 -285 -14 -25 -30 -45 -34 -45 -4 0 -7 -8 -5 -17 1
-10 0 -12 -2 -5 -8 21 -33 13 -33 -10 0 -18 -2 -20 -9 -9 -8 12 -14 13 -36 3
-27 -12 -27 -12 14 63 147 274 411 451 706 474 100 8 221 -2 305 -24z m-95
-167 c132 -28 267 -102 355 -194 39 -41 42 -46 20 -40 -154 43 -264 58 -455
63 -219 6 -344 -7 -518 -52 -50 -13 -93 -22 -95 -21 -7 8 132 127 184 159 146
88 342 121 509 85z m204 -450 c104 -22 240 -67 313 -104 l46 -23 4 -63 c8
-151 -29 -305 -99 -422 -98 -160 -280 -294 -450 -331 l-33 -7 0 492 0 492 63
-7 c34 -4 104 -16 156 -27z m792 -445 c131 -136 217 -258 293 -418 172 -360
196 -798 64 -1174 -32 -92 -110 -256 -151 -315 l-24 -37 -503 583 c-277 321
-512 593 -523 605 -20 22 -20 23 -1 29 163 53 292 131 404 244 157 156 259
367 278 572 l5 58 36 -29 c20 -16 75 -69 122 -118z m-149 -1960 l166 -188 -51
-53 c-66 -68 -192 -167 -282 -221 -620 -372 -1409 -273 -1912 241 l-72 73 152
167 152 166 841 1 840 1 166 -187z"/>
<path d="M4535 5663 c-130 -16 -312 -64 -427 -114 -70 -29 -75 -28 -58 15 6
17 6 26 0 26 -6 0 -10 -3 -10 -7 0 -5 -14 -16 -30 -25 -17 -10 -29 -21 -28
-25 3 -10 -58 -94 -64 -88 -2 3 -9 -18 -14 -45 -10 -47 -9 -50 8 -44 16 5 18
-2 18 -79 0 -283 183 -561 453 -687 67 -32 203 -70 249 -70 l28 0 0 575 0 575
-47 -1 c-27 -1 -61 -4 -78 -6z m55 -564 l0 -491 -32 7 c-171 37 -353 171 -451
331 -70 116 -110 287 -97 415 5 54 5 54 60 81 125 61 306 116 447 137 32 5 61
9 66 10 4 0 7 -220 7 -490z"/>
<path d="M3811 5420 c-12 -11 -27 -17 -32 -14 -5 3 -9 -6 -9 -20 0 -18 -16
-37 -62 -74 -78 -62 -219 -207 -280 -287 -145 -192 -251 -429 -305 -685 -26
-122 -26 -498 0 -620 41 -194 108 -369 203 -532 59 -101 68 -107 99 -78 14 13
24 28 22 34 -2 6 242 278 541 606 300 327 551 602 558 610 7 8 22 25 34 38 11
12 20 25 20 30 0 4 -35 15 -79 25 -93 21 -242 93 -327 159 -115 88 -206 204
-270 343 -65 140 -95 335 -58 376 9 10 18 40 20 66 3 30 1 41 -4 29 -7 -17 -9
-17 -24 -2 -20 19 -18 20 -47 -4z m-15 -348 c73 -289 297 -547 571 -654 45
-18 82 -36 80 -40 -3 -11 -1041 -1146 -1048 -1147 -10 -2 -107 202 -137 290
-112 319 -112 701 0 1018 85 242 211 435 404 621 l99 95 7 -58 c4 -32 15 -89
24 -125z"/>
<path d="M4688 4375 c-15 -13 -23 -25 -19 -27 5 -2 -162 -190 -371 -418 l-381
-415 36 -3 c46 -4 49 -20 5 -17 -18 1 -42 -1 -53 -6 -14 -5 -1 -8 38 -8 42 -1
57 3 57 13 0 7 10 16 23 20 12 3 325 6 695 6 659 0 672 0 692 -20 21 -21 50
-27 50 -9 0 5 -4 7 -10 4 -5 -3 -16 -3 -22 2 -8 5 3 10 31 13 l43 5 -133 150
c-73 83 -236 267 -363 410 -127 143 -231 265 -231 272 0 15 -35 53 -49 53 -6
0 -23 -11 -38 -25z m370 -485 l261 -295 -304 -3 c-168 -1 -442 -1 -609 0
l-303 3 309 338 310 337 38 -42 c20 -24 155 -176 298 -338z"/>
</g>
</svg>
